# xmcd
#
# Track frame offsets:
#	150
#	21229
#	43680
#	63833
#	85577
#	109009
#	129585
#	151434
#	177820
#	202983
#	231247
#	258270
#
# Disc length: 3795 seconds
#
# Revision: 0
# Processed by: cddbd v1.5.2PL0 Copyright (c) Steve Scherf et al.
# Submitted via: EasyCDDAExtractor 15.2.5.1
#
DISCID=940ed10c
DTITLE=Kenio Fuke - Relaxing Melodies of Nature(自然放松旋律)
DYEAR=2011
DGENRE=Acid
TTITLE0=Song for Kiara
TTITLE1=Summer's Love
TTITLE2=Espheras
TTITLE3=Infinite Love
TTITLE4=Spirit of the Water
TTITLE5=Magical Land
TTITLE6=Portals of the Universe
TTITLE7=Garden of the Roses
TTITLE8=Enchanted Forest
TTITLE9=Atmosphere
TTITLE10=Dance of the Dolphins
TTITLE11=Soul
EXTD=
EXTT0=
EXTT1=
EXTT2=
EXTT3=
EXTT4=
EXTT5=
EXTT6=
EXTT7=
EXTT8=
EXTT9=
EXTT10=
EXTT11=
PLAYORDER=
